<?xml version="1.0" standalone="no"?>
<!DOCTYPE svg PUBLIC "-//W3C//DTD SVG 20010904//EN"
 "http://www.w3.org/TR/2001/REC-SVG-20010904/DTD/svg10.dtd">
<svg version="1.0" xmlns="http://www.w3.org/2000/svg"
 width="500.000000pt" height="500.000000pt" viewBox="0 0 500.000000 500.000000"
 preserveAspectRatio="xMidYMid meet">
<metadata>
Created by potrace 1.14, written by Peter Selinger 2001-2017
</metadata>
<g transform="translate(0.000000,500.000000) scale(0.100000,-0.100000)"
fill="#000000" stroke="none">
<path d="M2493 4492 c-6 -4 -13 -23 -15 -42 l-3 -35 -305 -6 c-328 -7 -330 -7
-330 -22 0 -6 -3 -8 -6 -4 -3 3 -25 0 -49 -8 -24 -7 -47 -10 -50 -6 -4 3 -5
-1 -3 -9 2 -9 -4 -15 -17 -15 -13 0 -27 -13 -40 -36 -34 -60 -150 -239 -155
-239 -3 0 -20 26 -39 56 -23 39 -30 59 -23 66 6 6 54 36 107 68 53 32 92 60
87 64 -5 3 -15 -1 -22 -9 -7 -8 -16 -12 -21 -9 -5 3 -9 0 -9 -6 0 -6 -4 -8
-10 -5 -5 3 -20 -3 -32 -14 -12 -12 -30 -21 -40 -21 -10 0 -18 -5 -18 -12 0
-6 -3 -9 -6 -5 -4 3 -22 -5 -40 -20 -19 -14 -34 -22 -34 -17 0 4 -9 -2 -21
-14 -11 -12 -24 -20 -28 -18 -4 3 -13 -4 -21 -14 -8 -10 -17 -17 -22 -14 -4 3
-8 0 -8 -6 0 -6 -5 -8 -12 -4 -7 5 -8 3 -3 -6 5 -8 3 -11 -5 -8 -7 2 -24 -6
-38 -19 -13 -12 -28 -21 -32 -18 -4 3 -10 -5 -13 -16 -3 -12 -9 -19 -14 -16
-4 3 -14 -1 -21 -9 -19 -21 -6 -17 44 12 l44 26 -2 -193 -3 -194 -197 -3
c-109 -1 -198 0 -198 4 0 7 32 66 40 74 3 3 11 14 19 25 7 11 -1 4 -20 -15
-18 -19 -37 -34 -42 -32 -5 1 -6 -1 -3 -6 2 -4 -9 -23 -25 -41 -16 -19 -29
-39 -29 -45 0 -6 -5 -4 -10 4 -8 12 -10 11 -10 -7 0 -13 -5 -23 -11 -23 -5 0
-7 -5 -4 -10 3 -6 -1 -13 -9 -16 -9 -3 -16 -12 -16 -20 0 -8 -5 -14 -11 -14
-7 0 -9 -9 -6 -21 4 -15 0 -23 -14 -26 -10 -3 -19 -14 -19 -24 0 -11 -4 -19
-10 -19 -10 0 -116 -209 -112 -222 1 -5 -2 -8 -8 -8 -5 0 -7 -6 -4 -13 3 -8
-2 -19 -10 -26 -7 -6 -12 -20 -9 -30 3 -11 -2 -21 -11 -24 -14 -6 -16 -41 -16
-290 0 -157 -3 -299 -6 -316 -6 -30 -9 -31 -56 -31 -42 0 -49 -3 -46 -17 2
-14 15 -19 50 -21 l47 -3 3 -315 c3 -274 5 -317 19 -327 9 -7 15 -22 14 -35
-1 -12 2 -22 7 -22 4 0 13 -20 19 -45 11 -45 24 -63 37 -50 3 3 0 10 -8 15
-13 8 -13 10 -1 10 16 0 261 -140 261 -150 0 -10 -110 -71 -119 -66 -5 4 -35
46 -66 96 -39 62 -61 87 -71 83 -12 -4 -11 -8 6 -23 11 -9 17 -20 13 -24 -3
-3 -1 -6 6 -6 7 0 10 -4 7 -8 -6 -10 31 -74 50 -85 8 -4 14 -18 14 -30 0 -13
9 -30 20 -40 11 -9 20 -24 20 -32 0 -8 4 -15 9 -15 10 0 27 -39 22 -54 -1 -5
6 -3 15 5 12 9 15 9 10 2 -4 -7 -2 -13 3 -13 6 0 10 -6 8 -12 -1 -7 4 -12 11
-10 8 1 11 -2 8 -7 -8 -13 4 -42 15 -36 4 3 13 -5 20 -17 12 -22 47 -58 57
-58 4 0 -12 28 -45 75 -7 11 -13 23 -13 27 0 10 115 10 278 1 l122 -6 0 -189
0 -190 -47 28 c-27 15 -59 34 -73 42 -21 12 -20 10 5 -12 17 -15 42 -38 56
-52 14 -13 30 -24 36 -24 6 0 14 -7 17 -16 3 -8 10 -13 14 -10 5 3 19 -5 33
-17 41 -38 149 -102 149 -89 0 4 4 2 8 -3 12 -17 60 -45 77 -45 8 0 15 -5 15
-11 0 -5 4 -8 9 -4 5 3 15 -1 23 -8 7 -8 19 -12 26 -9 6 2 12 -3 12 -10 0 -8
10 -14 21 -15 12 -1 29 -9 38 -17 10 -9 20 -13 23 -10 4 3 21 -2 39 -12 19 -9
43 -18 54 -19 34 -4 36 -5 32 -12 -3 -5 140 -7 316 -6 287 2 320 1 303 -12
-19 -14 -19 -15 7 -15 25 0 27 -3 27 -39 0 -32 3 -39 18 -37 12 2 18 14 20 38
l3 35 277 6 c152 4 295 12 317 18 94 26 57 30 -233 27 -160 -2 -292 0 -292 3
0 3 11 11 24 17 13 6 97 54 186 107 l162 97 47 -43 c131 -123 180 -173 175
-181 -8 -13 21 -9 34 4 7 7 12 9 12 5 0 -3 19 2 42 13 22 10 48 16 57 13 13
-4 13 -3 2 5 -15 11 -15 12 90 175 l57 89 36 -53 c20 -30 36 -58 36 -64 0 -5
-23 -23 -50 -38 -28 -16 -50 -30 -50 -33 0 -10 54 6 62 18 4 7 8 9 8 4 0 -5 9
-1 20 9 11 10 20 14 20 10 0 -4 9 0 20 10 11 10 20 15 20 12 0 -8 62 34 86 57
9 9 23 15 30 12 8 -3 13 -2 13 2 -3 17 2 35 7 29 4 -3 13 1 21 9 8 8 18 12 22
10 4 -3 8 1 8 9 0 13 -3 13 -23 0 -13 -8 -26 -15 -29 -15 -3 0 -5 88 -5 195
l0 195 200 0 c110 0 200 -3 200 -8 0 -4 -16 -31 -35 -59 -20 -30 -29 -50 -20
-47 8 4 15 10 15 14 0 5 16 27 35 50 19 23 32 46 29 51 -3 5 -2 9 3 8 22 -4
32 3 43 30 6 16 18 32 27 35 8 3 12 10 8 15 -3 6 1 13 8 18 14 8 31 42 29 56
-1 4 3 7 8 7 6 0 10 9 10 20 0 14 5 18 18 13 9 -3 14 -3 10 2 -7 7 48 114 64
126 5 3 10 16 11 27 1 12 5 22 9 22 4 0 8 9 8 20 0 11 4 20 10 20 5 0 6 7 3
17 -4 11 -3 14 5 9 8 -5 10 -2 6 8 -3 9 -1 16 4 16 11 0 23 27 30 70 2 14 6
142 8 285 2 143 6 279 10 303 l5 42 45 0 c38 0 45 3 42 18 -2 12 -15 18 -46
20 l-42 3 -1 277 c0 152 -2 284 -4 292 -1 8 -9 35 -16 60 -7 25 -13 48 -15 53
-1 4 -3 10 -4 15 -1 4 -1 11 0 17 1 5 -2 7 -6 3 -8 -9 -28 25 -38 65 -3 15
-10 27 -15 27 -4 0 -7 11 -6 25 2 14 -1 25 -6 25 -5 0 -9 7 -9 15 0 8 -4 15
-8 15 -4 0 -13 12 -20 28 -22 49 -39 72 -47 64 -4 -4 -5 1 -2 10 3 10 0 21 -7
25 -7 5 -21 23 -30 41 -10 19 -21 30 -28 26 -7 -5 -8 -2 -3 6 5 8 1 18 -10 27
-11 7 -15 13 -10 13 4 0 -1 8 -12 18 -11 9 -28 32 -37 50 -10 19 -21 30 -28
26 -6 -4 -8 -3 -5 3 6 9 -56 83 -69 83 -3 0 14 -27 36 -60 66 -98 79 -90 -144
-90 -151 0 -198 3 -202 13 -2 7 -3 94 -2 194 l3 182 73 -45 c78 -48 82 -49 82
-34 0 6 -5 10 -11 10 -15 0 -39 26 -31 35 4 4 -2 5 -13 3 -12 -2 -19 2 -18 9
2 7 -3 12 -10 10 -6 -1 -11 3 -10 10 1 6 -5 10 -14 9 -8 -1 -25 7 -38 18 -33
32 -65 56 -65 51 0 -3 -6 -1 -12 5 -22 18 -81 54 -138 84 -30 16 -64 36 -74
45 -14 12 -17 12 -11 2 5 -8 -7 -3 -27 12 -19 15 -43 27 -53 27 -10 0 -24 8
-32 18 -9 10 -12 11 -7 2 6 -12 4 -13 -7 -2 -7 6 -19 12 -26 12 -8 0 -33 10
-56 22 -40 21 -56 22 -377 28 -270 4 -331 7 -315 17 19 12 18 12 -7 13 -25 0
-28 4 -28 34 0 37 -9 49 -27 38z m-99 -131 c-5 -5 -87 -55 -181 -111 l-173
-102 -37 30 c-21 17 -74 67 -118 111 l-80 81 300 0 c176 0 295 -4 289 -9z
m-518 -118 c62 -60 113 -112 113 -118 0 -10 -328 -207 -354 -213 -7 -2 -19 7
-25 19 -11 19 -2 49 66 220 44 110 81 199 82 199 2 0 55 -48 118 -107z m1312
95 c-2 -6 -54 -58 -114 -114 l-110 -103 -182 107 c-99 59 -181 110 -182 115 0
4 133 7 296 7 222 0 295 -3 292 -12z m-708 -304 l0 -306 -37 32 c-21 18 -94
87 -162 154 l-125 120 160 153 c87 84 160 153 162 153 1 0 2 -138 2 -306z
m830 141 c29 -77 61 -159 71 -183 22 -51 23 -71 6 -94 -12 -15 -31 -6 -192 89
-99 58 -182 107 -185 110 -3 3 49 57 115 119 65 63 122 111 126 106 4 -4 30
-70 59 -147z m-616 -9 l156 -150 -37 -39 c-21 -21 -95 -93 -165 -159 l-128
-120 0 312 c0 176 4 310 9 308 5 -1 79 -70 165 -152z m755 68 l111 -66 -17
-29 c-10 -16 -27 -41 -38 -56 l-21 -26 -70 109 c-86 133 -86 134 -80 134 2 0
54 -30 115 -66z m-1214 -68 l-110 -104 -27 26 c-15 14 -26 27 -24 29 10 11
253 152 261 152 6 1 -39 -46 -100 -103z m585 -6 c41 -24 83 -50 93 -58 16 -14
16 -16 1 -34 -10 -10 -21 -18 -26 -18 -13 0 -188 162 -188 173 0 5 10 3 23 -5
12 -8 56 -34 97 -58z m-1367 -60 c20 -33 37 -65 37 -70 0 -11 -169 -280 -176
-280 -2 0 -4 81 -4 179 l0 179 43 26 c23 14 47 25 52 26 6 0 27 -27 48 -60z
m149 -24 c-26 -64 -44 -83 -50 -54 -3 14 67 132 74 125 2 -2 -8 -34 -24 -71z
m1818 6 c44 -69 46 -75 26 -91 -11 -9 -19 4 -45 67 -46 116 -43 120 19 24z
m231 31 l49 -28 0 -167 c0 -93 -4 -168 -9 -168 -10 0 -177 261 -174 272 5 15
74 118 79 118 3 0 28 -12 55 -27z m-1586 -53 l28 -29 -163 -158 c-90 -87 -167
-158 -172 -158 -7 0 -110 147 -105 151 7 7 373 224 378 224 3 0 18 -13 34 -30z
m1102 -108 l181 -108 -42 -67 c-23 -36 -45 -69 -49 -73 -8 -8 -51 30 -215 189
l-124 119 23 24 c12 13 27 24 33 24 6 0 93 -49 193 -108z m-737 -247 c11 -13
-23 -15 -299 -15 -171 0 -311 3 -311 8 0 4 68 73 152 153 l153 146 146 -138
c81 -77 152 -146 159 -154z m-890 256 c8 -15 4 -33 -15 -78 -23 -52 -33 -63
-88 -96 -34 -20 -63 -35 -65 -33 -5 5 141 226 149 226 5 0 13 -9 19 -19z
m1624 -250 l30 -31 -310 0 -309 1 153 150 154 150 126 -120 c70 -65 140 -133
156 -150z m406 137 c44 -67 78 -123 76 -125 -2 -2 -35 16 -74 39 -66 40 -72
47 -93 101 -18 47 -20 63 -11 82 7 14 14 25 17 25 3 0 41 -55 85 -122z m-1980
38 c0 -3 -4 -8 -10 -11 -5 -3 -10 -1 -10 4 0 6 5 11 10 11 6 0 10 -2 10 -4z
m1845 -26 c3 -5 1 -10 -4 -10 -6 0 -11 5 -11 10 0 6 2 10 4 10 3 0 8 -4 11
-10z m-1777 -86 c23 -36 42 -69 42 -75 0 -5 -44 -9 -100 -9 -55 0 -100 4 -100
9 0 30 42 100 71 119 19 12 37 22 40 22 3 0 24 -30 47 -66z m1776 18 c26 -18
44 -41 53 -66 7 -22 11 -41 9 -43 -2 -2 -46 -2 -99 -1 l-96 3 42 67 c23 37 44
67 47 67 3 0 23 -12 44 -27z m-1975 -72 c-10 -27 -15 -30 -52 -30 -45 0 -44 3
10 36 50 30 54 30 42 -6z m2129 -38 c-30 -3 -48 9 -48 35 0 7 15 3 40 -10 l40
-22 -32 -3z m-2403 -41 c-6 -5 -70 -45 -143 -89 l-134 -80 -59 35 c-33 20 -62
40 -65 45 -3 4 7 29 23 53 l28 45 180 0 c108 0 175 -4 170 -9z m421 0 c-3 -4
-25 -14 -50 -21 -33 -9 -49 -9 -65 0 -35 18 -14 30 55 30 36 0 63 -4 60 -9z
m738 0 c-9 -8 -284 -111 -298 -111 -10 0 -196 109 -196 115 0 3 113 5 252 5
140 0 248 -4 242 -9z m-969 -25 c27 -12 33 -19 28 -33 -16 -43 -45 -43 -61 0
-19 54 -19 54 33 33z m320 -29 c-14 -35 -16 -36 -47 -25 -53 18 -53 25 4 46
29 11 54 19 56 18 1 -2 -5 -19 -13 -39z m1450 29 c-11 -7 -57 -34 -101 -60
l-81 -46 -134 49 c-74 27 -145 54 -159 60 -18 7 49 10 235 10 221 1 257 -1
240 -13z m383 2 c-8 -22 -43 -25 -88 -7 l-45 18 68 0 c48 1 67 -3 65 -11z
m675 -32 c15 -24 27 -46 27 -49 0 -7 -126 -77 -140 -77 -13 0 -248 136 -270
156 -12 12 14 14 170 14 l185 0 28 -44z m-1775 12 c-8 -13 -43 -67 -78 -121
-59 -93 -63 -97 -84 -84 -11 7 -54 33 -94 57 -40 23 -71 44 -70 46 5 4 322
122 332 123 4 1 2 -9 -6 -21z m-1253 -67 c-44 -66 -51 -71 -110 -91 -50 -17
-68 -19 -84 -10 -12 6 -21 14 -21 18 0 8 253 160 259 156 2 -2 -18 -34 -44
-73z m622 26 c17 -28 30 -54 28 -56 -8 -8 -95 33 -95 45 0 17 21 64 29 64 3 0
20 -24 38 -53z m1564 36 c27 -10 49 -20 49 -24 0 -10 -82 -31 -89 -22 -4 4
-12 20 -19 36 -14 33 -8 34 59 10z m304 -15 c-7 -18 -20 -34 -28 -36 -14 -3
-47 23 -47 37 0 8 48 28 72 30 15 1 16 -2 3 -31z m-1720 -47 l40 -24 -30 -13
c-46 -20 -52 -18 -90 38 -55 82 -53 82 80 -1z m797 12 c87 -32 158 -61 158
-64 0 -7 -167 -109 -178 -109 -4 0 -36 46 -72 102 -84 131 -82 128 -73 128 4
0 79 -26 165 -57z m530 -24 c-13 -12 -92 -39 -92 -32 0 4 15 31 33 61 l32 53
17 -38 c9 -21 14 -41 10 -44z m-796 -246 c-3 -3 -128 68 -144 82 -3 3 27 51
114 185 l29 45 3 -154 c1 -85 1 -156 -2 -158z m667 250 c-21 -32 -38 -60 -39
-61 -4 -6 -74 21 -74 28 0 6 131 88 143 89 4 1 -10 -25 -30 -56z m-1883 18 c0
-21 -6 -32 -21 -36 -29 -10 -31 -4 -7 33 25 39 28 40 28 3z m1353 -98 l66
-101 -69 -41 c-38 -23 -73 -41 -79 -41 -7 0 -11 52 -11 157 0 182 -6 181 93
26z m1163 86 c14 -22 23 -43 21 -45 -2 -3 -16 0 -31 5 -21 9 -26 17 -26 46 0
19 2 35 5 35 3 0 16 -18 31 -41z m187 -47 c42 -26 77 -50 77 -54 0 -4 -8 -12
-19 -17 -14 -8 -34 -4 -77 12 -49 19 -65 32 -96 77 -21 29 -38 58 -38 63 0 9
11 3 153 -81z m-2376 56 c32 -12 62 -24 66 -28 4 -4 -5 -39 -20 -78 l-28 -71
-71 -26 c-40 -14 -74 -25 -77 -25 -3 0 -17 31 -32 69 -26 66 -27 72 -13 108
13 30 25 41 59 55 56 21 47 22 116 -4z m1997 -59 c21 -51 20 -55 -8 -125 -15
-35 -30 -58 -38 -56 -7 2 -42 14 -78 27 l-65 25 -28 71 c-15 40 -26 73 -25 74
2 1 35 13 73 27 65 23 73 24 112 11 34 -12 44 -22 57 -54z m-2724 -30 c0 -4
-44 -33 -97 -64 -54 -32 -109 -65 -123 -74 -23 -15 -24 -15 -17 2 4 10 34 61
67 112 l61 93 55 -31 c29 -17 54 -34 54 -38z m3470 -59 c40 -61 71 -112 69
-114 -5 -5 -253 141 -256 151 -3 8 91 70 108 72 4 1 39 -49 79 -109z m-2990
81 c8 -15 5 -32 -9 -68 l-20 -48 0 68 c-1 67 9 84 29 48z m444 -6 c21 -9 37
-18 35 -20 -9 -8 -143 -55 -147 -51 -2 3 4 26 14 51 19 51 22 52 98 20z m1545
-77 c1 -15 -5 -14 -56 6 -32 13 -67 26 -78 31 -16 6 -9 11 40 30 l60 23 17
-36 c9 -21 17 -45 17 -54z m371 16 c0 -35 -4 -64 -8 -64 -4 0 -15 19 -23 43
-18 48 -8 100 17 90 10 -4 14 -23 14 -69z m-1550 5 c55 -33 100 -62 100 -64 0
-2 -28 6 -62 19 -35 13 -98 36 -141 52 -75 26 -78 28 -55 40 38 21 52 17 158
-47z m-890 -45 l0 -95 -57 32 c-101 57 -94 48 -66 90 22 34 76 67 111 68 9 1
12 -25 12 -95z m1741 82 c24 -10 30 -16 19 -20 -103 -40 -250 -93 -245 -88 4
5 167 108 191 121 1 1 17 -5 35 -13z m802 -16 c42 -16 58 -28 73 -56 17 -31
17 -36 4 -44 -8 -5 -43 -26 -77 -45 l-63 -36 0 100 c0 56 2 101 5 101 2 0 28
-9 58 -20z m-2866 -26 c2 -6 -4 -14 -14 -16 -10 -3 -48 -17 -85 -31 -38 -14
-68 -23 -68 -19 0 4 28 24 63 44 61 36 97 44 104 22z m1080 -195 l81 -126 -35
-54 c-26 -40 -53 -65 -99 -92 -34 -20 -68 -37 -74 -37 -9 0 -326 183 -339 196
-2 2 17 55 43 118 l47 114 122 45 122 45 26 -42 c14 -22 62 -98 106 -167z
m-932 181 c-3 -5 -11 -10 -16 -10 -6 0 -7 5 -4 10 3 6 11 10 16 10 6 0 7 -4 4
-10z m1073 -65 c35 -13 66 -25 69 -28 2 -3 -19 -42 -48 -87 l-52 -82 -83 129
c-46 70 -84 131 -84 135 0 4 30 -4 68 -18 37 -14 95 -36 130 -49z m1085 33
l117 -43 47 -117 c25 -65 45 -120 42 -122 -16 -14 -335 -196 -344 -196 -5 0
-33 15 -62 33 -36 22 -64 52 -93 96 l-41 63 23 38 c62 102 184 289 188 290 3
0 58 -19 123 -42z m911 11 c26 -17 46 -32 44 -34 -2 -3 -29 5 -59 16 -30 11
-61 22 -69 25 -13 4 -13 6 0 14 22 14 31 12 84 -21z m-2751 -79 c-4 -4 -23
-12 -42 -18 -32 -11 -33 -11 -27 11 3 13 13 41 22 63 l17 39 19 -44 c10 -24
15 -48 11 -51z m1607 28 c-22 -35 -59 -93 -83 -130 -23 -37 -44 -68 -47 -67
-7 0 -100 148 -100 158 0 8 233 99 258 100 7 1 -6 -27 -28 -61z m-1982 35 c20
-18 20 -20 -88 -188 -60 -93 -112 -170 -117 -170 -5 0 -61 48 -124 107 -75 71
-110 111 -104 117 8 8 387 149 406 150 4 1 16 -7 27 -16z m2626 -50 c9 -25 14
-48 13 -50 -8 -7 -67 20 -67 30 0 21 24 76 31 71 4 -2 14 -25 23 -51z m567
-25 c110 -40 198 -77 197 -83 -4 -13 -227 -230 -231 -224 -2 2 -43 67 -93 144
-49 77 -99 155 -111 174 -22 32 -22 35 -6 47 10 7 24 14 31 14 8 0 103 -33
213 -72z m-3052 -10 c39 -24 71 -46 71 -49 0 -3 -74 -76 -164 -162 l-163 -156
-27 28 -28 29 114 176 c62 97 116 176 120 176 4 0 39 -19 77 -42z m390 -20
c-12 -29 -25 -64 -31 -78 -9 -24 -9 -24 -27 16 -36 80 -36 81 11 97 68 24 70
23 47 -35z m2476 -120 c61 -94 111 -176 113 -182 1 -7 -11 -24 -27 -40 l-29
-28 -128 124 c-71 68 -146 139 -166 158 -21 18 -38 37 -38 41 0 6 149 99 160
99 3 0 55 -77 115 -172z m-538 135 c28 -11 33 -18 27 -35 -13 -42 -35 -90 -39
-86 -3 2 -18 37 -34 77 -34 80 -36 79 46 44z m-1067 -43 c0 -9 -244 -152 -255
-148 -19 6 -8 34 48 120 l56 87 76 -26 c41 -15 75 -29 75 -33z m360 -52 c33
-51 60 -95 60 -99 0 -4 -6 -11 -12 -17 -10 -7 -49 11 -145 66 -73 43 -132 79
-133 82 0 7 130 58 153 59 12 1 37 -29 77 -91z m-1342 32 c12 -27 18 -50 15
-50 -8 0 -113 61 -113 66 0 4 59 32 71 33 4 1 16 -21 27 -49z m2171 19 c18 -6
31 -15 29 -20 -4 -12 -108 -72 -108 -62 0 16 33 93 40 93 4 0 21 -5 39 -11z
m-2932 -161 l112 -113 -108 -168 c-59 -92 -113 -173 -119 -179 -9 -9 -12 57
-12 280 0 161 3 292 8 292 4 0 58 -51 119 -112z m571 -337 l-3 -148 -155 148
-155 148 155 149 155 149 3 -148 c1 -82 1 -216 0 -298z m1222 154 c0 -157 -2
-285 -4 -285 -3 0 -193 292 -221 339 -5 9 25 46 101 122 60 60 112 109 116
109 5 0 8 -128 8 -285z m-1051 239 c34 -20 61 -38 61 -39 0 -1 -7 -19 -15 -40
l-16 -36 -22 33 c-57 86 -77 118 -73 118 3 0 32 -16 65 -36z m2548 -188 l82
-80 -151 -146 c-83 -80 -155 -146 -159 -148 -5 -2 -9 133 -9 299 l0 303 78
-74 c42 -41 114 -111 159 -154z m473 -63 c0 -246 -2 -285 -14 -273 -21 22
-216 330 -216 340 0 11 211 219 223 220 4 0 7 -129 7 -287z m-3063 162 l51
-81 -60 -149 c-33 -83 -62 -152 -64 -154 -2 -2 -4 110 -4 250 0 216 2 251 14
234 7 -11 36 -56 63 -100z m1309 -39 l62 -58 -110 -172 c-61 -94 -112 -173
-114 -175 -2 -2 -4 123 -4 279 l0 284 53 -49 c28 -28 80 -76 113 -109z m933
122 c-7 -13 -28 -47 -47 -76 l-35 -53 -14 32 c-19 46 -17 51 40 86 62 39 72
40 56 11z m70 -185 c-1 -104 -5 -212 -8 -240 l-6 -53 -58 148 -59 149 59 91
c32 51 62 92 66 92 5 0 7 -84 6 -187z m-1424 117 c-48 -49 -70 -58 -70 -30 0
11 99 80 115 80 2 0 -18 -23 -45 -50z m474 -11 c34 -20 48 -35 44 -45 -4 -11
-17 -4 -52 27 -25 24 -48 44 -50 46 -2 2 -1 3 2 3 4 0 29 -14 56 -31z m-1021
-94 c63 -37 110 -71 105 -75 -4 -4 -43 -28 -85 -53 l-76 -46 -51 127 c-28 70
-51 130 -51 135 0 4 10 1 23 -6 12 -8 73 -45 135 -82z m-178 5 c45 -113 69
-180 66 -180 -2 0 -32 43 -66 96 -58 91 -61 98 -49 126 14 35 21 29 49 -42z
m1837 -60 c-29 -71 -56 -130 -61 -130 -5 0 -45 21 -88 46 -50 30 -76 50 -70
56 12 12 254 157 264 157 3 1 -17 -57 -45 -129z m123 52 c0 -7 -29 -56 -65
-110 -36 -53 -65 -94 -65 -90 0 3 23 66 52 140 51 131 52 133 64 103 7 -17 13
-36 14 -43z m-1339 37 c8 -17 8 -24 -3 -33 -7 -7 -41 -39 -76 -71 -56 -53 -64
-57 -78 -43 -14 14 -12 20 16 67 19 30 49 61 73 76 51 30 53 30 68 4z m737
-32 c48 -30 102 -91 102 -116 0 -23 -42 -23 -68 0 -98 85 -121 112 -111 131
13 24 15 23 77 -15z m-2051 -49 l23 -22 -92 -87 c-51 -48 -94 -86 -96 -84 -4
4 131 215 137 215 3 0 15 -10 28 -22z m1448 -128 c43 -69 85 -136 94 -149 15
-24 15 -24 -9 -11 -14 7 -89 51 -168 98 l-143 85 63 64 c48 49 65 60 74 50 6
-6 46 -68 89 -137z m1945 38 c36 -56 74 -115 85 -132 l20 -31 -30 22 c-16 12
-68 60 -115 107 l-84 85 24 26 c13 14 26 25 29 25 3 0 35 -46 71 -102z m-2722
8 c28 -46 52 -88 52 -92 -1 -11 -230 -148 -236 -141 -6 6 117 317 125 317 3 0
30 -38 59 -84z m1376 -15 c11 -12 17 -23 15 -25 -2 -2 -62 -39 -134 -81 -71
-42 -145 -86 -164 -98 -41 -25 -46 -35 76 156 l95 147 47 -39 c25 -21 55 -48
65 -60z m-944 79 c0 -5 -5 -10 -11 -10 -5 0 -7 5 -4 10 3 6 8 10 11 10 2 0 4
-4 4 -10z m1648 -167 c33 -84 58 -153 55 -153 -10 0 -233 132 -238 140 -8 12
106 183 115 173 4 -4 34 -77 68 -160z m-2380 -175 c2 -4 -142 -8 -320 -7
l-323 0 164 159 165 159 155 -151 c86 -83 158 -155 159 -160z m687 292 c4 -6
-31 -69 -76 -141 l-82 -130 -34 82 c-18 45 -31 85 -28 87 2 3 44 29 92 58 88
53 116 63 128 44z m1293 -60 c51 -29 95 -56 97 -61 5 -8 -47 -149 -55 -149
-13 0 -160 245 -156 257 3 8 9 12 13 10 5 -2 50 -28 101 -57z m1052 -100 l155
-149 -320 0 -320 -1 155 150 c85 82 160 149 165 149 6 0 80 -67 165 -149z
m-2273 122 c9 -6 -1 -21 -33 -53 -50 -48 -52 -46 -14 18 27 46 28 47 47 35z
m1093 -61 c22 -33 40 -63 40 -68 0 -4 -25 17 -55 47 -42 41 -52 57 -43 67 6 7
12 13 14 13 2 0 21 -27 44 -59z m-681 -187 c2 -2 -128 -4 -290 -4 l-294 1 114
108 115 108 175 -105 c97 -57 178 -106 180 -108z m681 86 l115 -109 -299 -1
c-181 0 -296 4 -290 9 11 11 347 211 354 211 3 0 57 -50 120 -110z m-1422 -19
c23 -37 42 -71 42 -75 0 -3 -72 -6 -160 -6 -88 0 -160 3 -160 8 1 6 218 141
230 142 3 0 24 -31 48 -69z m1872 -30 l94 -56 -82 -3 c-45 -2 -118 -2 -162 0
l-80 3 45 68 c52 77 32 79 185 -12z m-2465 -245 l-160 -154 -60 56 c-92 86
-255 244 -255 248 0 2 143 4 318 4 l317 -1 -160 -153z m616 122 c-12 -18 -32
-50 -44 -70 -12 -21 -25 -38 -29 -38 -10 0 -228 129 -228 135 0 3 72 5 161 5
l161 0 -21 -32z m713 22 c-13 -13 -346 -210 -355 -210 -5 0 -59 49 -121 110
l-113 109 299 1 c199 0 297 -3 290 -10z m2009 -7 c3 -5 -67 -76 -156 -159
l-161 -152 -158 152 -158 151 227 5 c126 3 267 7 315 8 48 1 89 -1 91 -5z
m-1258 -44 c-22 -22 -74 -71 -115 -109 l-75 -68 -173 103 c-95 56 -175 105
-179 108 -3 4 126 7 287 7 l294 0 -39 -41z m460 28 c-43 -29 -217 -128 -219
-125 -16 19 -86 128 -86 132 0 4 73 6 162 6 139 0 160 -2 143 -13z m-2347
-457 l-3 -149 -155 147 c-85 81 -155 150 -155 153 0 3 70 73 155 154 l155 148
3 -152 c1 -83 1 -218 0 -301z m203 380 c65 -39 119 -73 119 -75 0 -16 -113
-176 -119 -169 -11 12 -130 314 -125 314 3 0 59 -32 125 -70z m320 27 c14 -23
50 -79 79 -125 72 -111 61 -119 -66 -46 -54 32 -101 59 -102 60 -5 4 52 154
58 154 3 0 17 -20 31 -43z m1494 -34 c15 -38 29 -73 32 -79 2 -7 -42 -40 -98
-74 -91 -54 -104 -60 -117 -46 -13 13 -6 29 64 140 43 69 82 125 85 126 4 0
19 -30 34 -67z m-960 -99 c-53 -82 -101 -153 -106 -159 -6 -6 -32 13 -72 54
-34 35 -57 65 -52 68 6 2 80 46 165 97 85 51 156 92 158 91 1 -1 -40 -69 -93
-151z m1341 139 c-36 -97 -121 -303 -125 -303 -3 0 -31 40 -62 88 l-57 89 117
70 c64 39 120 72 125 72 4 1 5 -7 2 -16z m394 -284 c0 -3 -70 -72 -155 -153
l-155 -148 0 302 0 302 155 -149 c85 -81 155 -151 155 -154z m-3371 107 c55
-88 101 -165 101 -170 0 -11 -213 -216 -224 -216 -3 0 -6 129 -6 287 0 244 2
285 14 273 7 -8 59 -87 115 -174z m1789 -238 l-3 -141 -112 107 -111 107 111
173 112 174 3 -139 c1 -76 1 -203 0 -281z m172 237 c61 -96 110 -178 108 -182
-5 -13 -214 -213 -221 -213 -4 0 -7 128 -7 285 0 157 2 285 4 285 2 0 54 -79
116 -175z m148 60 l133 -79 -63 -63 c-49 -49 -65 -60 -74 -50 -12 13 -166 253
-185 289 l-12 21 34 -19 c19 -11 94 -56 167 -99z m1652 -176 c0 -167 -4 -289
-9 -287 -5 2 -59 52 -120 111 l-112 108 97 152 c110 172 134 207 140 207 2 0
4 -131 4 -291z m-3066 -138 c-33 -50 -62 -91 -66 -91 -10 0 -10 161 -1 345 l6
138 60 -150 60 -150 -59 -92z m2316 127 l0 -253 -64 99 -64 99 16 41 c10 23
37 92 62 153 25 62 46 113 48 113 1 0 2 -114 2 -252z m-2855 83 l39 -41 -27
-27 c-14 -15 -28 -25 -31 -22 -10 11 -156 240 -156 245 0 8 122 -101 175 -155z
m1130 79 c25 -26 27 -33 15 -40 -22 -14 -22 -14 -62 51 -37 58 -37 60 -10 41
15 -11 40 -34 57 -52z m1099 -12 c-15 -23 -28 -44 -29 -46 -1 -1 -10 0 -19 4
-15 6 -11 14 25 50 24 24 44 42 47 40 2 -2 -9 -24 -24 -48z m1180 -62 c-37
-58 -73 -106 -79 -106 -7 0 -20 8 -29 19 -16 18 -13 22 76 109 51 50 94 89 96
87 2 -2 -27 -51 -64 -109z m-2633 37 c-96 -243 -93 -237 -107 -212 -7 13 -13
31 -14 40 0 15 127 219 136 219 2 0 -5 -21 -15 -47z m150 -30 c43 -26 79 -50
79 -53 -1 -10 -265 -159 -268 -151 -3 8 80 218 95 244 7 11 10 10 94 -40z
m1693 -67 c57 -88 57 -89 43 -124 l-14 -35 -48 119 c-26 66 -50 126 -53 134
-9 27 13 -2 72 -94z m-72 -36 c27 -67 47 -124 46 -125 -4 -4 -246 139 -259
152 -6 6 17 25 68 56 43 25 82 45 87 43 6 -1 32 -58 58 -126z m-1274 32 c67
-61 72 -69 59 -86 -14 -19 -16 -18 -69 12 -65 38 -116 105 -97 128 19 23 30
17 107 -54z m892 31 c0 -24 -69 -108 -107 -130 -41 -24 -46 -25 -61 -9 -15 15
-11 21 58 90 61 62 76 73 92 65 10 -5 18 -13 18 -16z m60 -27 c0 -3 -4 -8 -10
-11 -5 -3 -10 -1 -10 4 0 6 5 11 10 11 6 0 10 -2 10 -4z m-1932 -230 c128
-125 127 -109 14 -172 -35 -20 -65 -34 -67 -32 -10 11 -218 335 -222 346 -3 7
7 26 22 42 l28 30 56 -52 c31 -28 107 -101 169 -162z m825 182 c39 -23 66 -50
93 -92 22 -33 40 -62 42 -66 2 -6 -182 -302 -205 -329 -1 -2 -57 16 -124 40
l-121 44 -44 110 c-27 66 -42 115 -37 123 8 12 321 201 335 202 3 0 31 -15 61
-32z m1329 -84 c89 -53 165 -98 167 -100 4 -4 -78 -215 -89 -227 -7 -8 -243
-98 -246 -94 -9 10 -205 321 -207 328 -1 4 13 32 32 61 24 38 50 63 95 90 33
20 66 37 73 38 6 0 85 -43 175 -96z m749 -135 c-62 -96 -116 -175 -121 -177
-10 -4 -150 77 -150 87 0 3 73 76 162 163 l163 156 29 -28 28 -28 -111 -173z
m-1731 73 c0 -4 -7 0 -62 35 -26 16 -36 28 -31 39 4 12 15 7 49 -27 24 -24 44
-45 44 -47z m-1370 -97 c97 -152 107 -171 93 -182 -9 -7 -24 -13 -32 -13 -21
-1 -411 142 -411 150 0 13 220 222 230 218 6 -2 60 -80 120 -173z m538 140
c18 -40 15 -48 -31 -76 -90 -56 -90 -55 -39 26 26 41 50 75 53 75 3 0 11 -11
17 -25z m1326 9 c4 -9 5 -18 4 -18 -2 -1 -14 -9 -28 -17 -14 -8 -43 -26 -65
-39 l-40 -23 55 56 c30 32 57 57 61 57 4 0 10 -7 13 -16z m1510 -102 c110
-105 116 -113 94 -121 -13 -4 -107 -38 -210 -75 -187 -67 -201 -70 -236 -41
-3 3 33 61 103 170 18 28 51 81 75 118 24 37 46 66 50 65 4 -2 60 -54 124
-116z m-710 28 c25 -38 43 -70 40 -70 -4 0 -33 16 -66 36 -45 27 -58 40 -53
53 4 9 10 24 12 34 3 9 9 17 13 17 4 0 28 -31 54 -70z m-1217 -82 c29 -17 55
-33 58 -38 4 -6 -103 -50 -151 -62 -11 -3 -134 173 -134 190 0 5 5 13 11 19 8
8 32 -1 88 -34 42 -25 100 -59 128 -75z m463 80 c0 -12 -107 -185 -120 -193
-9 -6 -150 45 -150 54 1 10 254 158 263 154 4 -2 7 -9 7 -15z m-651 -143 c19
-31 32 -58 29 -60 -10 -10 -269 -102 -266 -95 2 4 39 64 83 133 l80 126 20
-25 c12 -13 36 -49 54 -79z m-744 41 c-19 -50 -26 -53 -75 -32 l-32 13 58 36
c32 19 60 34 62 32 2 -2 -4 -24 -13 -49z m1515 -79 c45 -71 80 -130 78 -132
-4 -4 -254 88 -263 96 -3 4 17 43 46 88 28 45 53 81 54 79 1 -2 39 -61 85
-131z m-1410 44 c20 -49 25 -71 16 -68 -8 3 -32 11 -55 18 -23 7 -41 16 -41
21 0 13 42 109 46 105 2 -2 17 -36 34 -76z m2084 12 c19 -12 17 -13 -17 -28
-20 -8 -39 -15 -42 -15 -6 0 -21 37 -31 77 l-7 27 39 -24 c21 -13 48 -29 58
-37z m-129 5 c9 -24 19 -48 22 -54 4 -11 -80 -48 -96 -42 -9 3 40 138 50 138
4 0 15 -19 24 -42z m-2249 -245 c-2 -2 -27 4 -55 14 -38 13 -58 28 -76 55
l-24 36 77 46 77 45 3 -96 c1 -52 1 -98 -2 -100z m127 180 c21 -6 21 -20 3
-64 l-14 -34 -21 48 c-26 59 -26 71 -3 62 9 -4 25 -10 35 -12z m1097 -148 c0
-85 -3 -155 -7 -155 -5 0 -15 12 -24 28 -9 15 -41 66 -72 114 l-56 86 67 41
c37 22 73 40 80 41 9 0 12 -37 12 -155z m1175 98 c-25 -67 -30 -70 -49 -22 -9
23 -16 43 -14 44 7 7 73 32 77 29 2 -2 -4 -25 -14 -51z m-1055 2 c36 -21 66
-39 68 -41 4 -3 -116 -194 -134 -214 -12 -12 -14 9 -14 143 0 87 3 156 8 154
4 -2 36 -21 72 -42z m1260 -26 l24 -16 -23 -37 c-22 -36 -42 -48 -96 -62 l-25
-6 0 96 0 96 48 -27 c27 -16 59 -35 72 -44z m-2325 16 l70 -26 28 -71 c15 -39
26 -72 25 -73 -2 -2 -36 -14 -75 -29 l-73 -25 -43 18 c-38 17 -45 25 -57 64
-11 41 -10 51 11 106 13 34 28 61 34 61 5 0 42 -11 80 -25z m2845 16 c0 -5
-30 -54 -66 -109 l-66 -101 -51 29 c-29 16 -52 34 -52 40 0 6 52 42 115 79
133 80 120 73 120 62z m-805 -68 c24 -62 26 -71 14 -107 -11 -32 -21 -43 -58
-59 l-46 -20 -68 23 c-37 13 -70 27 -73 31 -3 5 8 39 23 76 l28 68 70 27 c39
15 73 27 76 28 4 0 19 -30 34 -67z m-2706 21 c64 -24 84 -44 44 -44 -15 0
-123 57 -123 66 0 7 6 5 79 -22z m460 -26 c14 -33 16 -50 8 -71 -16 -46 -32
-25 -35 46 -2 37 0 67 3 67 3 0 14 -19 24 -42z m891 38 c0 -2 -42 -29 -94 -60
-87 -52 -96 -55 -125 -45 -18 6 -29 14 -26 18 7 6 224 89 238 90 4 1 7 -1 7
-3z m804 -108 c-3 -4 -20 -10 -39 -14 -29 -5 -47 2 -129 51 -53 32 -98 61
-101 65 -2 4 58 -16 134 -44 77 -28 137 -54 135 -58z m1142 71 c-66 -38 -96
-45 -103 -24 -3 11 119 62 152 64 11 0 -11 -17 -49 -40z m-476 -44 c0 -49 -3
-65 -14 -65 -22 0 -26 38 -8 86 9 24 18 44 19 44 2 0 3 -29 3 -65z m-1332 -59
c39 -62 72 -115 72 -118 0 -3 -74 22 -165 56 -91 33 -165 64 -165 67 0 7 170
109 180 108 3 0 38 -51 78 -113z m-604 78 l69 -27 -58 -23 c-32 -13 -60 -23
-61 -21 -2 1 -12 24 -23 50 -24 56 -21 57 73 21z m1133 -96 c-22 -12 -319
-119 -323 -116 -1 2 31 56 72 120 l76 116 93 -56 c60 -36 90 -59 82 -64z
m1053 112 c0 -5 -7 -10 -16 -10 -8 0 -12 5 -9 10 3 6 10 10 16 10 5 0 9 -4 9
-10z m-610 -7 c0 -4 -7 -27 -17 -51 -18 -48 -25 -49 -102 -15 l-36 15 70 28
c78 31 85 33 85 23z m-2176 -107 c21 -31 36 -59 33 -62 -4 -4 -199 108 -221
127 -6 6 -2 14 9 23 17 12 27 11 80 -8 52 -20 65 -30 99 -80z m2872 70 c10 -8
17 -16 14 -19 -16 -15 -243 -147 -247 -143 -3 2 13 32 35 67 36 55 46 65 98
85 71 27 75 28 100 10z m-2965 -111 l144 -85 -192 0 -191 0 -27 46 c-15 25
-25 47 -23 49 13 12 125 75 134 75 7 0 76 -38 155 -85z m909 56 c0 -7 -133
-91 -144 -91 -4 0 11 27 33 59 l41 59 35 -11 c19 -5 35 -13 35 -16z m-710 -54
l0 -42 -30 45 c-37 56 -37 62 0 49 27 -10 30 -15 30 -52z m1874 7 c21 -31 36
-57 34 -59 -5 -5 -148 79 -148 87 0 6 46 26 66 27 6 1 28 -24 48 -55z m1027
20 c33 -19 59 -38 59 -41 0 -3 -12 -25 -27 -49 l-28 -44 -179 0 c-99 0 -176 3
-173 6 16 16 263 162 276 163 7 1 40 -15 72 -35z m-2341 21 c0 -3 -15 -29 -34
-57 l-35 -51 -15 38 c-18 43 -17 45 27 62 36 13 57 16 57 8z m1403 -21 c49
-17 54 -27 35 -69 -14 -31 -19 -31 -37 -2 -33 52 -53 87 -49 87 3 0 25 -7 51
-16z m545 -24 l-23 -40 -3 32 c-3 30 9 48 36 48 8 0 5 -13 -10 -40z m-1563
-33 l140 -52 -90 -6 c-129 -10 -415 -10 -415 -1 1 13 195 121 210 116 8 -3 78
-29 155 -57z m851 -13 c52 -31 94 -58 94 -60 0 -2 -113 -4 -252 -4 -138 0
-249 3 -245 6 7 7 287 113 300 113 5 1 51 -24 103 -55z m-1662 30 c24 -24 20
-31 -29 -47 -25 -9 -45 -14 -45 -13 0 2 7 20 15 40 16 39 34 45 59 20z m301
-21 c8 -20 14 -38 12 -39 -3 -4 -109 35 -116 42 -5 5 59 33 76 34 7 0 20 -16
28 -37z m1703 -8 c3 -3 -4 -8 -14 -11 -10 -4 -34 -13 -53 -21 -19 -7 -36 -12
-38 -10 -2 2 4 20 12 41 l15 36 37 -15 c20 -9 39 -18 41 -20z m261 -1 c7 -19
11 -37 9 -39 -2 -3 -21 1 -41 7 -31 10 -36 15 -31 32 15 47 46 47 63 0z
m-2094 -29 c29 -13 29 -13 -32 -14 -35 -1 -63 3 -63 8 0 22 52 26 95 6z m1940
-5 c43 -16 18 -30 -53 -29 l-67 1 40 19 c47 22 46 22 80 9z m-2047 -85 c14
-31 8 -31 -43 0 l-40 25 36 0 c29 0 38 -5 47 -25z m236 13 c-13 -22 -77 -123
-80 -126 -1 -2 -20 7 -43 20 -28 16 -45 35 -56 63 -8 23 -15 44 -15 48 0 4 45
7 101 7 77 0 98 -3 93 -12z m601 -119 c-72 -72 -142 -139 -157 -150 l-26 -19
-154 150 -153 149 310 1 310 0 -130 -131z m885 112 c0 -5 -68 -74 -152 -154
l-152 -145 -66 58 c-36 32 -108 102 -160 154 l-95 96 313 0 c180 0 312 -4 312
-9z m320 0 c0 -31 -43 -103 -72 -121 -18 -11 -36 -20 -40 -20 -8 0 -88 126
-88 140 0 6 38 10 100 10 55 0 100 -4 100 -9z m130 4 c0 -5 -84 -55 -93 -55
-3 0 -1 14 4 30 10 26 16 30 50 30 21 0 39 -2 39 -5z m-1710 -162 l162 -158
-28 -27 -29 -26 -175 105 c-96 57 -180 108 -187 111 -8 5 3 30 35 80 25 39 49
72 52 72 4 0 80 -71 170 -157z m560 -165 l0 -312 -62 59 c-35 33 -109 105
-166 160 l-103 100 158 152 c87 84 161 153 166 153 4 0 7 -140 7 -312z m818
233 l50 -78 -190 -113 -189 -113 -30 29 c-16 15 -28 31 -27 34 4 8 327 320
332 320 2 0 26 -35 54 -79z m-1854 14 c39 -23 53 -39 72 -82 13 -29 24 -62 24
-72 0 -17 -27 -49 -34 -40 -12 15 -156 241 -156 246 0 3 10 -1 23 -9 12 -8 44
-27 71 -43z m1293 -160 l103 -100 -63 -63 c-34 -35 -106 -104 -159 -154 l-98
-90 0 308 0 308 58 -54 c31 -30 103 -100 159 -155z m-1339 57 c45 -71 82 -134
82 -141 0 -6 -17 -38 -37 -71 l-38 -58 -52 31 -53 32 0 167 c0 93 3 168 8 168
4 0 44 -58 90 -128z m2292 -51 l0 -179 -49 -31 -49 -30 -41 63 c-23 34 -41 68
-41 74 0 11 169 282 176 282 2 0 4 -81 4 -179z m-78 142 c-11 -16 -45 -68 -77
-118 l-57 -89 -14 26 c-13 24 -11 33 11 85 22 51 33 62 83 90 70 40 79 41 54
6z m-2032 -78 c0 -8 -2 -15 -4 -15 -2 0 -6 7 -10 15 -3 8 -1 15 4 15 6 0 10
-7 10 -15z m1850 -21 c0 -8 -5 -12 -10 -9 -6 4 -8 11 -5 16 9 14 15 11 15 -7z
m-1619 -106 c96 -55 176 -103 179 -106 3 -2 -48 -56 -114 -119 -65 -63 -122
-111 -126 -106 -12 13 -150 373 -150 392 0 17 18 41 31 41 3 0 84 -46 180
-102z m1580 61 c10 -19 0 -51 -67 -220 -44 -110 -81 -199 -84 -199 -3 0 -57
49 -120 109 -91 86 -112 112 -103 122 17 17 335 207 350 208 7 1 17 -9 24 -20z
m-1788 -141 c20 -49 32 -88 29 -88 -6 0 -81 118 -90 142 -4 8 18 41 23 36 2
-2 19 -42 38 -90z m1811 -22 c-55 -84 -55 -72 2 62 15 35 17 36 26 16 8 -18 3
-32 -28 -78z m-1199 -45 c47 -46 84 -85 82 -87 -3 -3 -214 120 -225 131 -7 7
39 46 50 42 4 -1 45 -40 93 -86z m-620 -42 c41 -63 72 -115 70 -117 -2 -2 -54
26 -115 63 -71 43 -108 71 -103 78 23 41 66 98 70 94 2 -3 37 -56 78 -118z
m1314 87 l22 -23 -128 -76 c-70 -42 -129 -74 -131 -72 -6 6 191 194 204 195 6
0 20 -11 33 -24z m-694 -136 c93 -54 173 -104 179 -110 7 -7 -85 -10 -294 -10
l-305 1 115 109 c63 60 120 109 126 110 6 0 87 -45 179 -100z"/>
<path d="M922 1180 c14 -22 24 -19 15 5 -4 8 -11 15 -17 15 -6 0 -6 -7 2 -20z"/>
<path d="M3415 716 c-13 -9 -15 -15 -7 -20 7 -4 12 -3 12 3 0 5 8 11 18 13 11
2 13 6 6 10 -6 4 -19 1 -29 -6z"/>
<path d="M3371 691 c-9 -6 -10 -11 -2 -15 6 -4 11 -2 11 4 0 6 5 8 12 4 7 -4
8 -3 4 4 -8 14 -7 14 -25 3z"/>
</g>
</svg>
