<svg width="494" height="473" viewBox="0 0 494 473" fill="none" xmlns="http://www.w3.org/2000/svg">
<path fill-rule="evenodd" clip-rule="evenodd" d="M249.495 45.9562L250.203 45.5336L248.837 45.5396C248.61 45.4267 248.372 45.3361 248.126 45.2693V7.92325C248.742 7.75565 249.31 7.43893 249.771 6.99619C249.869 6.90143 249.962 6.802 250.048 6.69839L318.644 47.6063C318.596 47.7559 318.557 47.9088 318.529 48.0639H250.807C250.663 47.3615 250.305 46.71 249.771 46.1964C249.682 46.1116 249.59 46.0315 249.495 45.9562ZM249.785 305.543C249.709 305.454 249.628 305.368 249.542 305.286C249.073 304.835 248.494 304.515 247.865 304.35V240.406L274.351 281.768L249.785 305.543ZM250.13 309.695C250.238 309.518 250.33 309.333 250.406 309.141L280.416 291.238L283.152 295.511L269.526 316.842L250.13 309.695ZM248.788 349.307C248.499 349.143 248.189 349.017 247.865 348.932V311.524L265.999 322.363L248.788 349.307ZM250.579 351.738C250.51 351.4 250.392 351.074 250.228 350.769L267.717 323.39L290.479 336.996L250.579 351.738ZM249.352 355.179C249.352 355.178 249.353 355.177 249.354 355.176H318.399C318.489 355.356 318.595 355.529 318.716 355.693L284.428 388.875L249.352 355.179ZM249.928 422.264C249.812 422.11 249.683 421.965 249.542 421.83C249.073 421.379 248.494 421.059 247.865 420.894V356.524L282.99 390.267L249.928 422.264ZM247.865 427.905C248.133 427.835 248.393 427.736 248.639 427.611L318.362 427.305C318.394 427.372 318.427 427.438 318.463 427.503L250.601 468.156C250.475 467.409 250.107 466.712 249.542 466.17C249.073 465.719 248.494 465.399 247.865 465.234V427.905ZM247.553 472.314C248.301 472.181 248.997 471.834 249.542 471.31C249.645 471.21 249.742 471.106 249.832 470.997L365.126 428.204C365.177 428.26 365.23 428.314 365.285 428.367C365.995 429.049 366.957 429.432 367.96 429.432C368.261 429.432 368.558 429.398 368.845 429.331L368.94 429.478L368.94 429.308C369.576 429.144 370.162 428.822 370.636 428.367C371.345 427.686 371.744 426.761 371.744 425.798C371.744 425.245 371.613 424.705 371.367 424.216L441.681 357.162C442.157 357.363 442.675 357.47 443.205 357.47C444.209 357.47 445.171 357.087 445.881 356.406C446.249 356.052 446.534 355.633 446.722 355.176H447.006L446.775 355.04C446.915 354.656 446.989 354.25 446.989 353.836C446.989 352.872 446.59 351.948 445.881 351.266C445.811 351.199 445.739 351.135 445.665 351.074L489.246 240.926L489.278 240.926C490.281 240.926 491.244 240.543 491.953 239.862C492.663 239.18 493.061 238.256 493.061 237.292C493.061 236.328 492.663 235.404 491.953 234.722C491.429 234.218 490.767 233.878 490.052 233.734L445.803 123.714C445.835 123.687 445.867 123.66 445.898 123.632C445.914 123.618 445.93 123.603 445.946 123.589C445.963 123.573 445.98 123.556 445.997 123.54C446.707 122.859 447.105 121.934 447.105 120.97C447.105 120.688 447.071 120.409 447.005 120.138L447.255 119.991L446.965 119.989C446.791 119.394 446.46 118.845 445.997 118.4C445.288 117.719 444.325 117.336 443.322 117.336C442.746 117.336 442.184 117.462 441.675 117.698L371.875 50.1509C372.085 49.6936 372.196 49.1952 372.196 48.6858C372.196 47.7219 371.797 46.7975 371.088 46.1159C370.709 45.7519 370.258 45.4731 369.767 45.2923V45.1322L369.683 45.2625C369.279 45.1241 368.85 45.0514 368.413 45.0514C367.409 45.0514 366.447 45.4343 365.738 46.1159C365.706 46.1459 365.676 46.1764 365.646 46.2073C365.616 46.2375 365.588 46.2682 365.559 46.2993L250.879 4.42526C250.878 3.4617 250.48 2.53766 249.771 1.85632C249.303 1.40681 248.725 1.08719 248.098 0.921656V0.696316L247.71 0.84011C247.508 0.808157 247.303 0.791809 247.095 0.791809C246.938 0.791809 246.782 0.801234 246.627 0.819757L246.584 0.747513L246.409 0.85208C245.661 0.984677 244.966 1.3322 244.42 1.85632C244.317 1.95555 244.22 2.05992 244.13 2.16881L128.837 44.9614C128.785 44.9056 128.732 44.8512 128.677 44.7983C127.968 44.1167 127.005 43.7338 126.002 43.7338C125.701 43.7338 125.404 43.7682 125.117 43.8346L125.023 43.6874L125.022 43.8578C124.386 44.0216 123.8 44.3435 123.327 44.7983C122.617 45.4799 122.219 46.4043 122.219 47.3682C122.219 47.9211 122.35 48.4611 122.595 48.9496L52.2817 116.004C51.8057 115.802 51.287 115.695 50.7568 115.695C49.7534 115.695 48.7911 116.078 48.0816 116.76C47.7133 117.114 47.4287 117.533 47.2403 117.989H46.9566L47.187 118.126C47.047 118.509 46.9735 118.916 46.9735 119.33C46.9735 120.294 47.3721 121.218 48.0816 121.9C48.1511 121.967 48.223 122.03 48.2972 122.091L4.71615 232.24L4.68446 232.239C3.68107 232.239 2.71877 232.622 2.00927 233.304C1.29976 233.985 0.901169 234.91 0.901169 235.874C0.901169 236.838 1.29976 237.762 2.00927 238.444C2.53343 238.947 3.19557 239.288 3.91032 239.431L48.1593 349.452C48.0927 349.507 48.028 349.565 47.9652 349.626C47.2557 350.307 46.8572 351.232 46.8572 352.195C46.8572 352.478 46.8914 352.757 46.9576 353.028L46.7078 353.175L46.9976 353.176C47.1713 353.772 47.502 354.32 47.9652 354.765C48.6747 355.447 49.637 355.83 50.6404 355.83C51.2161 355.83 51.7782 355.704 52.2868 355.468L122.087 423.015C121.878 423.472 121.766 423.971 121.766 424.48C121.766 425.444 122.165 426.368 122.874 427.05C123.253 427.414 123.704 427.693 124.195 427.873V428.034L124.279 427.903C124.683 428.042 125.112 428.114 125.55 428.114C126.553 428.114 127.515 427.731 128.225 427.05C128.286 426.991 128.346 426.929 128.403 426.867L243.084 468.741C243.084 469.704 243.482 470.628 244.192 471.31C244.66 471.759 245.238 472.079 245.865 472.244V472.469L246.252 472.326C246.454 472.358 246.66 472.374 246.867 472.374C247.024 472.374 247.181 472.365 247.335 472.346L247.379 472.418L247.553 472.314ZM244.468 427.21L243.759 427.632L245.126 427.626C245.352 427.739 245.591 427.83 245.836 427.897V465.243C245.22 465.41 244.653 465.727 244.192 466.17C244.093 466.264 244 466.364 243.914 466.467L175.318 425.56C175.367 425.41 175.405 425.257 175.433 425.102H243.155C243.299 425.804 243.657 426.456 244.192 426.969C244.28 427.054 244.372 427.134 244.468 427.21ZM244.177 167.623C244.253 167.712 244.335 167.798 244.42 167.88C244.889 168.331 245.469 168.651 246.098 168.816V232.759L219.611 191.397L244.177 167.623ZM243.833 163.47C243.724 163.647 243.632 163.833 243.557 164.024L213.547 181.928L210.811 177.655L224.436 156.323L243.833 163.47ZM245.174 123.859C245.463 124.023 245.774 124.149 246.098 124.234V161.642L227.963 150.802L245.174 123.859ZM243.383 121.428C243.452 121.766 243.571 122.092 243.734 122.397L226.246 149.776L203.484 136.17L243.383 121.428ZM244.611 117.987C244.61 117.988 244.609 117.989 244.608 117.989H175.564C175.473 117.81 175.367 117.637 175.246 117.473L209.534 84.2903L244.611 117.987ZM244.034 50.902C244.15 51.0553 244.279 51.2006 244.42 51.3362C244.889 51.7868 245.469 52.1069 246.098 52.2721V116.642L210.972 82.8985L244.034 50.902ZM246.098 45.2605C245.829 45.3311 245.569 45.4299 245.324 45.555L175.601 45.8609C175.569 45.7939 175.535 45.7279 175.499 45.6629L243.361 5.00946C243.488 5.7572 243.855 6.45364 244.42 6.99619C244.889 7.44678 245.469 7.76685 246.098 7.93202V45.2605ZM126.383 420.935C126.362 420.93 126.341 420.926 126.32 420.922C126.278 420.913 126.237 420.906 126.195 420.899V398.593L136.719 404.869L126.383 420.935ZM129.05 423.102C128.862 422.66 128.583 422.254 128.225 421.91C128.206 421.892 128.187 421.874 128.168 421.857L138.437 405.894L167.292 423.102H129.05ZM93.1339 376.548L54.229 353.347C54.2449 353.301 54.2599 353.255 54.2739 353.208L78.0502 353.311L93.1339 376.548ZM76.7482 351.306L54.2814 351.208C54.266 351.156 54.2494 351.104 54.2316 351.052L70.3863 341.505L76.7482 351.306ZM69.2964 339.826L53.0742 349.413C52.5701 349.006 51.9656 348.734 51.3218 348.62L51.1471 311.867L69.2964 339.826ZM244.382 310.596C244.805 310.95 245.303 311.207 245.836 311.353V348.941C245.707 348.976 245.581 349.018 245.456 349.065L227.185 320.801L244.382 310.596ZM243.299 306.647C243.158 307.031 243.084 307.44 243.084 307.855C243.084 308.038 243.098 308.22 243.126 308.398L223.759 315.502L210.139 294.432L213.559 289.115L243.299 306.647ZM245.836 304.359C245.558 304.434 245.29 304.54 245.037 304.674L219.324 280.154L245.836 238.941V304.359ZM225.463 321.822L243.843 350.254C243.826 350.275 243.809 350.297 243.793 350.319L243.776 350.342L243.758 350.367C243.742 350.389 243.726 350.412 243.71 350.435L243.699 350.451L243.676 350.486L202.682 335.339L225.463 321.822ZM210.026 388.411L244.512 355.282C244.905 355.583 245.356 355.804 245.836 355.935V420.902C245.36 421.032 244.912 421.251 244.521 421.548L210.026 388.411ZM242.643 423.102H175.206C175.087 422.821 174.93 422.554 174.74 422.309L200.165 397.884L242.643 423.102ZM198.38 396.825L173.107 421.104C172.665 420.935 172.19 420.846 171.706 420.846C171.545 420.846 171.386 420.855 171.228 420.875L155.071 380.037L159.225 373.58L198.38 396.825ZM129.401 425.102H167.978C168.111 425.835 168.475 426.517 169.03 427.05C169.74 427.731 170.702 428.114 171.706 428.114C172.623 428.114 173.507 427.794 174.194 427.218L235.777 463.944L129.401 425.102ZM168.031 421.214L139.52 404.211L148.262 390.621L168.031 421.214ZM137.801 403.186L147.07 388.777L126.195 356.473V396.264L137.801 403.186ZM167.316 416.422L149.45 388.775L153.739 382.107L167.316 416.422ZM148.258 386.931L152.833 379.818L147.645 366.705L128.114 355.11C128.025 355.189 127.933 355.262 127.838 355.332L148.258 386.931ZM139.6 346.371L128.668 350.381C128.538 350.198 128.39 350.027 128.225 349.868C127.986 349.639 127.719 349.444 127.432 349.285L131.522 339.041L137.586 341.281L139.6 346.371ZM124.195 336.333V349.044C124.083 349.086 123.973 349.132 123.865 349.183L112.854 332.143L124.195 336.333ZM87.831 331.196L121.915 351.43C121.907 351.454 121.9 351.478 121.894 351.502L79.1394 351.316L72.1096 340.487L87.831 331.196ZM80.4414 353.322L121.932 353.502C122.112 354.065 122.433 354.584 122.874 355.008C123.253 355.372 123.704 355.651 124.195 355.831V395.072L97.0244 378.868L80.4414 353.322ZM154.165 377.748L157.504 372.558L150.456 368.374L154.165 377.748ZM199.877 395.387L160.307 371.897L170.591 355.911C170.949 356.017 171.324 356.072 171.706 356.072C172.216 356.072 172.716 355.973 173.178 355.786L207.139 388.411L199.877 395.387ZM174.782 354.553L208.583 387.024L243.251 353.72H175.246C175.13 354.015 174.974 354.295 174.782 354.553ZM175.414 351.72H241.245L200.467 336.653L175.372 351.543C175.388 351.602 175.402 351.66 175.414 351.72ZM172.702 348.932L183.287 332.477L167.3 338.341L171.492 348.809L171.535 348.807L171.566 348.806C171.613 348.804 171.659 348.803 171.706 348.803C172.045 348.803 172.38 348.847 172.702 348.932ZM169.585 349.428L165.422 339.03L151.291 344.213L168.467 350.559C168.624 350.31 168.812 350.077 169.03 349.868C169.202 349.703 169.387 349.556 169.585 349.428ZM168.159 353.703L144.611 353.601L149.253 365.334L158.586 370.875L168.887 354.862C168.569 354.521 168.323 354.127 168.159 353.703ZM174.603 349.674L198.052 335.761L186.337 331.433L174.603 349.674ZM165.765 351.693L143.818 351.597L142.214 347.542L148.395 345.275L165.765 351.693ZM164.678 337.172L148.398 343.144L139.117 339.715L135.203 329.823L141.216 314.761L158.221 321.044L164.678 337.172ZM166.557 336.483L160.749 321.978L183.343 330.326L166.557 336.483ZM189.132 330.333L200.266 334.447L224.377 320.141L222.947 317.93L189.132 330.333ZM188.194 328.547L221.834 316.208L208.951 296.279L188.194 328.547ZM224.873 317.224L226.098 319.12L236.452 312.976L224.873 317.224ZM136.598 338.784L134.123 332.528L132.264 337.183L136.598 338.784ZM130.387 336.489L133.051 329.819L126.195 312.492V334.94L130.387 336.489ZM126.195 337.072L129.646 338.347L126.195 346.99V337.072ZM123.071 310.371C123.089 310.389 123.108 310.407 123.127 310.425C123.44 310.726 123.802 310.969 124.195 311.146V334.201L111.044 329.342L105.496 320.757L123.071 310.371ZM122.326 306.421C122.125 306.87 122.018 307.357 122.018 307.855C122.018 308.114 122.047 308.37 122.103 308.619L104.409 319.076L79.7469 280.911L87.6313 273.337L122.326 306.421ZM124.195 304.565C123.993 304.656 123.8 304.764 123.617 304.889L89.075 271.95L123.55 238.831C123.753 238.97 123.969 239.089 124.195 239.187V304.565ZM128.179 305.028C128.1 304.967 128.019 304.909 127.936 304.855L142.646 282.143L147.288 293.736L128.179 305.028ZM129.37 306.648L146.296 296.645L140.082 312.21L129.554 308.32C129.575 308.167 129.585 308.012 129.585 307.855C129.585 307.44 129.511 307.032 129.37 306.648ZM127.745 310.974C128.009 310.822 128.255 310.638 128.477 310.425C128.569 310.337 128.655 310.245 128.736 310.15L139.34 314.068L134.131 327.114L127.745 310.974ZM107.916 328.186L103.773 321.775L98.6912 324.778L107.916 328.186ZM96.4712 326.09L109.725 330.987L121.133 348.64L89.7944 330.036L96.4712 326.09ZM96.2724 323.884L102.686 320.094L78.2777 282.322L53.792 305.845C54.2009 306.436 54.4237 307.135 54.4237 307.855C54.4237 308.041 54.409 308.225 54.3801 308.406L96.2724 323.884ZM77.172 280.611L52.2403 304.562C51.8846 304.403 51.5037 304.297 51.1109 304.249L50.8046 239.808L77.172 280.611ZM48.8004 238.935L49.1122 304.531C49.023 304.569 48.9353 304.61 48.8494 304.654L6.32684 239.148C6.70633 238.972 7.05612 238.735 7.35965 238.444C7.82035 238.001 8.14996 237.456 8.32448 236.865H47.2005C47.375 237.456 47.7047 238.001 48.1654 238.444C48.3596 238.63 48.5727 238.795 48.8004 238.935ZM47.9652 310.425C48.3073 310.754 48.7081 311.013 49.1439 311.194L49.3139 346.963L9.22495 247.286L47.3637 306.039C47.0347 306.586 46.8572 307.212 46.8572 307.855C46.8572 308.819 47.2557 309.744 47.9652 310.425ZM71.0197 338.808L52.8449 310.809C52.9424 310.742 53.0368 310.67 53.1278 310.594L85.8699 330.032L71.0197 338.808ZM61.1891 313.054L94.0524 325.196L87.8333 328.872L61.1891 313.054ZM131.307 351.543L141.664 351.588L140.336 348.231L131.307 351.543ZM141.478 345.682L140.105 342.212L145.502 344.206L141.478 345.682ZM185.524 329L207.759 294.435L198.633 280.316L186.265 273.025L149.782 294.585L159.748 319.476L185.524 329ZM208.947 292.588L211.835 288.099L202.48 282.584L208.947 292.588ZM239.303 301.969L214.642 287.432L218.222 281.867L239.303 301.969ZM212.918 286.416L216.748 280.462L200.27 264.748L193.527 268.734L200.055 278.833L212.918 286.416ZM175.798 236.865H243.523L200.556 262.257L175.181 238.06C175.462 237.7 175.671 237.295 175.798 236.865ZM243.162 239.401L202.06 263.691L217.85 278.749L243.162 239.401ZM175.972 241.578L198.766 263.314L192.44 267.053L175.972 241.578ZM172.252 239.507L190.717 268.071L186.263 270.703L164.039 257.602L171.301 239.414C171.579 239.476 171.867 239.508 172.158 239.508C172.189 239.508 172.221 239.508 172.252 239.507ZM196.208 276.565L188.231 271.863L191.803 269.752L196.208 276.565ZM163.288 259.481L184.297 271.865L150.329 291.939L163.288 259.481ZM161.545 258.453L148.449 291.254L143.978 280.087L158.972 256.937L161.545 258.453ZM157.248 255.92L143.067 277.814L127.555 239.068C127.741 238.971 127.92 238.858 128.088 238.731L157.248 255.92ZM126.195 241.053V303.863L141.736 279.869L126.195 241.053ZM99.4908 382.668L124.195 397.4V420.725L99.4908 382.668ZM146.442 363.665L129.377 353.535L142.456 353.591L146.442 363.665ZM141.958 312.903L157.219 318.542L148.451 296.642L141.958 312.903ZM87.6262 270.568L122.266 237.292C122.205 237.153 122.153 237.01 122.11 236.865H54.4806C54.3327 237.366 54.0736 237.833 53.7178 238.234L87.6262 270.568ZM54.3336 241.584L86.1825 271.955L78.6412 279.2L54.3336 241.584ZM208.583 389.797L237.898 417.959L201.661 396.447L208.583 389.797ZM120.482 418.679L57.2214 357.46L95.6003 380.348L120.482 418.679ZM168.967 237.827C168.769 237.529 168.618 237.204 168.518 236.865H129.39C129.364 236.952 129.334 237.039 129.302 237.125L158.336 254.24L168.967 237.827ZM9.55863 225.437L50.123 122.913L50.1504 122.917V160.082C49.3718 160.204 48.6465 160.557 48.0816 161.1C47.3721 161.782 46.9735 162.706 46.9735 163.67C46.9735 164.558 47.3117 165.412 47.9195 166.074L9.55863 225.437ZM49.6152 167.135L7.03537 233.026C7.14836 233.112 7.25666 233.205 7.35965 233.304C7.81033 233.737 8.13556 234.268 8.31287 234.845H47.2121C47.3894 234.268 47.7147 233.737 48.1654 233.304C48.71 232.781 49.4036 232.434 50.1504 232.3V167.257C49.9686 167.229 49.7898 167.188 49.6152 167.135ZM52.1504 167.049V231.913L78.4551 191.022L53.0168 166.585C52.7495 166.776 52.458 166.932 52.1504 167.049ZM54.271 165.016L79.5577 189.308L103.748 151.704L97.0312 147.717L54.5137 163.241C54.5312 163.383 54.5401 163.526 54.5401 163.67C54.5401 164.135 54.4471 164.592 54.271 165.016ZM52.1504 159.527V122.709C52.626 122.528 53.0632 122.254 53.432 121.9C53.4462 121.886 53.4603 121.872 53.4742 121.859L70.11 131.735L52.1504 159.527ZM71.1963 130.054L54.4513 120.113C54.4556 120.094 54.4598 120.075 54.4639 120.056C54.4686 120.034 54.473 120.012 54.4773 119.989H77.7L71.1963 130.054ZM128.886 49.7204C129.307 49.2436 129.592 48.6719 129.716 48.0622L167.882 47.8948L138.853 65.2847L128.886 49.7204ZM126.989 50.8768C127.063 50.8575 127.137 50.8359 127.21 50.8123L137.136 66.313L126.887 72.4528L126.989 50.8768ZM124.786 50.8098C124.853 50.8316 124.921 50.8517 124.989 50.8699L124.881 73.6543L100.639 88.1772L124.786 50.8098ZM243.795 234.845H175.786C175.709 234.591 175.602 234.347 175.469 234.116L200.98 209.427L243.795 234.845ZM191.672 203.901L173.434 232.452C173.028 232.313 172.597 232.239 172.158 232.239C171.957 232.239 171.758 232.255 171.562 232.285L164.179 213.708L186.131 200.612L191.672 203.901ZM158.708 216.972L169.317 233.473C168.952 233.872 168.684 234.341 168.53 234.845H129.378C129.346 234.74 129.309 234.637 129.267 234.535L158.708 216.972ZM122.789 233.611C122.485 233.979 122.259 234.398 122.121 234.845H54.469C54.3327 234.401 54.1092 233.985 53.8086 233.62L88.3033 200.483L122.789 233.611ZM128.008 232.958C127.926 232.899 127.842 232.844 127.755 232.792L143.537 193.375L157.626 215.288L128.008 232.958ZM124.87 75.9924L98.1805 91.9812L81.3737 117.989H122.233C122.422 117.533 122.706 117.114 123.074 116.76C123.526 116.326 124.081 116.013 124.683 115.843L124.87 75.9924ZM126.817 115.843C126.772 115.831 126.728 115.819 126.683 115.808L126.876 74.7908L138.215 67.998L147.883 83.0953L126.817 115.843ZM129.266 117.989C129.23 117.901 129.189 117.813 129.146 117.728L146.908 107.135L142.562 117.989H129.266ZM127.865 122.343C128.065 122.214 128.252 122.066 128.425 121.9C128.656 121.678 128.854 121.43 129.016 121.164L139.713 125.105L137.416 130.842L132.025 132.81L127.865 122.343ZM122.748 121.543C122.821 121.634 122.899 121.722 122.981 121.806L110.952 140.504L97.2364 145.513L89.8789 141.145L122.748 121.543ZM78.9924 117.989L94.2951 94.3088L54.7655 117.989H78.9924ZM72.9173 131.075L80.0813 119.989H121.448L87.9221 139.983L72.9173 131.075ZM71.831 132.756L54.1436 160.127L85.9676 141.149L71.831 132.756ZM87.9244 142.31L59.3704 159.339L94.8105 146.398L87.9244 142.31ZM104.83 150.021L99.457 146.831L109.162 143.287L104.83 150.021ZM105.469 152.726L81.0275 190.72L88.3033 197.709L122.265 165.084C122.07 164.641 121.966 164.16 121.966 163.67C121.966 163.31 122.022 162.955 122.129 162.616L105.469 152.726ZM89.7468 199.096L123.547 166.625C123.828 166.818 124.134 166.973 124.456 167.085V232.44L89.7468 199.096ZM126.456 230.656V167.24C126.538 167.225 126.619 167.208 126.7 167.188L142.209 191.31L126.456 230.656ZM146.56 174.794L129.404 164.61C129.489 164.306 129.533 163.99 129.533 163.67L129.533 163.64L129.532 163.601C129.532 163.565 129.53 163.53 129.529 163.495L140.463 159.455L146.56 174.794ZM139.724 157.596L128.865 161.608C128.736 161.427 128.589 161.257 128.425 161.1C128.199 160.883 127.949 160.697 127.679 160.544L134.312 143.977L139.724 157.596ZM124.58 137.658L124.474 160.248C124.023 160.404 123.603 160.641 123.24 160.95L106.551 151.043L112.27 142.152L124.58 137.658ZM143.121 189.031L128.613 166.466L147.635 177.758L143.121 189.031ZM144.449 191.096L159.344 214.263L161.691 212.863L148.76 180.329L144.449 191.096ZM166.948 226.09L162.439 214.746L160.426 215.946L166.948 226.09ZM184.174 199.45L163.431 211.825L150.587 179.511L184.174 199.45ZM157.48 153.167L148.767 174.931L142.34 158.761L157.48 153.167ZM158.482 150.665L141.601 156.902L135.392 141.28L138.941 132.414L149.291 128.635L164.987 134.418L158.482 150.665ZM146.389 127.565L139.94 129.92L141.59 125.797L146.389 127.565ZM149.294 126.504L142.334 123.94L143.916 119.989H167.137L149.294 126.504ZM140.457 123.248L141.761 119.989H131.613L140.457 123.248ZM169.483 117.002C169.506 116.98 169.53 116.958 169.554 116.936L158.754 100.071L149.738 105.447L144.716 117.989H168.752C168.935 117.627 169.181 117.292 169.483 117.002ZM160.472 99.0458L171.344 116.023C171.609 115.967 171.882 115.938 172.158 115.938C172.677 115.938 173.184 116.04 173.652 116.233L208.091 82.9038L200.219 75.3421L160.472 99.0458ZM152.197 127.574L168.928 121.465C169.083 121.709 169.269 121.937 169.483 122.142C169.582 122.237 169.686 122.327 169.795 122.41L165.731 132.561L152.197 127.574ZM167.608 133.252L171.644 123.173C171.813 123.195 171.985 123.207 172.158 123.207C172.597 123.207 173.028 123.133 173.433 122.994L183.829 139.23L167.608 133.252ZM157.674 98.3855L150.962 102.388L154.531 93.4761L157.674 98.3855ZM148.132 104.076L153.205 91.4061L149.069 84.9479L129.689 115.075L148.132 104.076ZM159.393 97.3606L155.444 91.1942L171.554 50.9561C171.753 50.9869 171.954 51.0026 172.158 51.0026C172.908 51.0026 173.635 50.7886 174.251 50.3958L198.724 73.9054L159.393 97.3606ZM175.586 48.9052L200.505 72.8432L242.891 47.5657L175.907 47.8596C175.855 48.223 175.747 48.5754 175.586 48.9052ZM174.031 44.2106L234.982 7.69769L131.641 46.0537L168.701 45.8911C168.888 45.4877 169.152 45.1165 169.483 44.7983C170.192 44.1167 171.155 43.7338 172.158 43.7338C172.821 43.7338 173.466 43.9008 174.031 44.2106ZM169.094 49.4999L139.932 66.9697L149.073 81.2451L169.32 49.7715C169.24 49.6842 169.164 49.5936 169.094 49.4999ZM154.119 89.1241L166.868 57.2791L150.26 83.0977L154.119 89.1241ZM126.593 134.793L126.641 124.678L130.146 133.496L126.593 134.793ZM126.583 136.926L130.885 135.356L133.238 141.277L126.483 158.149L126.583 136.926ZM136.418 133.335L132.764 134.669L134.318 138.579L136.418 133.335ZM186.128 198.284L150.128 176.912L160.009 152.233L186.006 142.628L208.436 177.656L200.882 189.483L186.128 198.284ZM192.749 202.215L188.085 199.446L198.478 193.246L192.749 202.215ZM193.392 204.923L178.228 228.663L199.198 208.369L193.392 204.923ZM200.687 206.928L194.47 203.236L202.313 190.958L212.907 184.638L217.044 191.098L200.687 206.928ZM218.145 192.816L243.43 232.302L202.47 207.986L218.145 192.816ZM218.51 189.679L241.096 167.821L214.626 183.613L218.51 189.679ZM209.625 179.511L204.716 187.196L211.828 182.953L209.625 179.511ZM209.622 175.799L222.515 155.616L188.724 143.165L209.622 175.799ZM189.524 141.328L223.617 153.89L225.168 151.462L201.075 137.06L189.524 141.328ZM198.87 135.742L175.272 121.637C175.214 121.717 175.153 121.795 175.089 121.871L186.822 140.194L198.87 135.742ZM176.414 119.989H241.506L201.279 134.852L176.414 119.989ZM124.649 122.909L114.061 139.37L124.59 135.525L124.649 122.909ZM161.011 149.731L166.864 135.11L183.746 141.33L161.011 149.731ZM120.577 53.6383L56.8548 114.406L96.7533 90.5047L120.577 53.6383ZM57.4881 227.312L86.8598 199.096L79.9249 192.434L57.4881 227.312ZM209.529 81.512L241.089 50.969L202 74.2799L209.529 81.512ZM238.252 159.283L225.538 154.598L226.886 152.489L238.252 159.283ZM162.295 256.574L167.258 244.145L160.061 255.257L162.295 256.574ZM367.579 52.2309C367.641 52.2444 367.704 52.2565 367.767 52.267V74.5728L357.244 68.297L367.579 52.2309ZM364.912 50.0639C365.1 50.5056 365.379 50.9116 365.738 51.2557L365.762 51.2791L365.794 51.3088L355.525 67.272L326.67 50.0639H364.912ZM400.829 96.6179L439.733 119.819C439.717 119.865 439.702 119.911 439.688 119.958L415.912 119.854L400.829 96.6179ZM417.214 121.86L439.681 121.958C439.696 122.01 439.713 122.062 439.731 122.114L423.576 131.661L417.214 121.86ZM424.666 133.34L440.888 123.753C441.392 124.16 441.997 124.432 442.64 124.545L442.815 161.299L424.666 133.34ZM249.58 162.569C249.157 162.215 248.66 161.958 248.126 161.813V124.225C248.255 124.19 248.382 124.148 248.506 124.1L266.778 152.365L249.58 162.569ZM250.663 166.519C250.805 166.134 250.879 165.726 250.879 165.31C250.879 165.128 250.864 164.946 250.836 164.768L270.203 157.664L283.823 178.733L280.403 184.05L250.663 166.519ZM248.126 168.807C248.404 168.732 248.672 168.626 248.925 168.491L274.638 193.011L248.126 234.225V168.807ZM268.499 151.344L250.119 122.912C250.178 122.837 250.234 122.759 250.287 122.68L291.281 137.826L268.499 151.344ZM283.936 84.7549L249.451 117.884C249.057 117.583 248.606 117.362 248.126 117.231V52.2633C248.602 52.1337 249.05 51.9149 249.441 51.6175L283.936 84.7549ZM251.32 50.0639H318.756C318.876 50.3449 319.032 50.6115 319.223 50.8569L293.798 75.2815L251.32 50.0639ZM295.582 76.3407L320.855 52.0617C321.297 52.2309 321.772 52.3202 322.257 52.3202C322.417 52.3202 322.577 52.3104 322.734 52.2912L338.892 93.1287L334.738 99.586L295.582 76.3407ZM364.561 48.0639H325.984C325.852 47.3308 325.487 46.649 324.932 46.1159C324.222 45.4343 323.26 45.0514 322.257 45.0514C321.339 45.0514 320.455 45.3718 319.768 45.9481L258.185 9.22223L364.561 48.0639ZM325.931 51.9521L354.442 68.955L345.7 82.5444L325.931 51.9521ZM356.161 69.9799L346.892 84.3886L367.767 116.692V76.9014L356.161 69.9799ZM326.647 56.7443L344.512 84.3911L340.223 91.0584L326.647 56.7443ZM345.704 86.2353L341.129 93.3474L346.317 106.46L365.849 118.055C365.937 117.977 366.029 117.903 366.124 117.834L345.704 86.2353ZM354.363 126.795L365.294 122.785C365.424 122.968 365.572 123.139 365.738 123.298C365.976 123.527 366.243 123.722 366.53 123.881L362.44 134.125L356.377 131.885L354.363 126.795ZM369.767 136.832V124.121C369.879 124.08 369.989 124.034 370.097 123.982L381.109 141.023L369.767 136.832ZM406.131 141.97L372.048 121.736C372.055 121.712 372.062 121.688 372.068 121.664L414.823 121.85L421.853 132.679L406.131 141.97ZM413.521 119.844L372.03 119.664C371.851 119.1 371.529 118.582 371.088 118.158C370.709 117.794 370.258 117.515 369.767 117.334V78.0941L396.938 94.2977L413.521 119.844ZM339.797 95.4176L336.459 100.608L343.506 104.792L339.797 95.4176ZM294.086 77.7783L333.655 101.269L323.372 117.255C323.014 117.149 322.638 117.094 322.257 117.094C321.746 117.094 321.246 117.193 320.784 117.38L286.823 84.7549L294.086 77.7783ZM319.18 118.612L285.38 86.1416L250.711 119.446H318.717C318.832 119.151 318.988 118.87 319.18 118.612ZM318.548 121.446H252.718L293.495 136.513L318.59 121.623C318.574 121.564 318.56 121.505 318.548 121.446ZM321.26 124.234L310.675 140.689L326.662 134.825L322.471 124.357L322.427 124.359L322.396 124.36C322.35 124.362 322.303 124.362 322.257 124.362C321.917 124.362 321.582 124.318 321.26 124.234ZM324.377 123.738L328.54 134.136L342.671 128.953L325.495 122.607C325.338 122.856 325.15 123.088 324.932 123.298C324.761 123.462 324.575 123.609 324.377 123.738ZM325.803 119.463L349.351 119.565L344.709 107.831L335.376 102.291L325.075 118.303C325.394 118.645 325.639 119.039 325.803 119.463ZM319.36 123.491L295.91 137.405L307.625 141.733L319.36 123.491ZM328.198 121.473L350.144 121.568L351.748 125.623L345.567 127.891L328.198 121.473ZM329.284 135.993L345.564 130.022L354.846 133.451L358.759 143.343L352.746 158.405L335.741 152.122L329.284 135.993ZM327.406 136.682L333.213 151.188L310.619 142.84L327.406 136.682ZM304.83 142.833L293.696 138.719L269.585 153.025L271.015 155.236L304.83 142.833ZM305.769 144.619L272.128 156.958L285.011 176.887L305.769 144.619ZM269.09 155.942L267.864 154.046L257.51 160.189L269.09 155.942ZM357.365 134.382L359.84 140.637L361.698 135.983L357.365 134.382ZM363.575 136.676L360.912 143.346L367.767 160.674V138.226L363.575 136.676ZM367.767 136.093L364.317 134.818L367.767 126.176V136.093ZM370.892 162.795C370.873 162.777 370.855 162.758 370.836 162.74C370.523 162.44 370.161 162.197 369.767 162.02V138.965L382.919 143.824L388.467 152.409L370.892 162.795ZM371.637 166.745C371.837 166.296 371.944 165.808 371.944 165.31C371.944 165.051 371.915 164.796 371.859 164.546L389.553 154.09L414.215 192.255L406.331 199.829L371.637 166.745ZM369.767 168.601C369.969 168.51 370.163 168.402 370.346 168.277L404.887 201.216L370.412 234.335C370.209 234.195 369.993 234.076 369.767 233.978V168.601ZM365.783 168.137C365.862 168.199 365.943 168.257 366.026 168.311L351.316 191.023L346.674 179.43L365.783 168.137ZM364.592 166.518L347.666 176.521L353.881 160.956L364.408 164.846C364.388 164.999 364.377 165.154 364.377 165.31C364.377 165.726 364.451 166.133 364.592 166.518ZM366.217 162.192C365.953 162.344 365.707 162.528 365.485 162.74C365.394 162.828 365.307 162.92 365.226 163.016L354.622 159.098L359.831 146.052L366.217 162.192ZM386.047 144.979L390.19 151.391L395.271 148.388L386.047 144.979ZM397.491 147.076L384.237 142.179L372.829 124.525L404.168 143.13L397.491 147.076ZM397.69 149.281L391.276 153.072L415.685 190.843L440.17 167.321C439.761 166.729 439.539 166.031 439.539 165.31C439.539 165.125 439.553 164.941 439.582 164.76L397.69 149.281ZM416.79 192.554L441.722 168.604C442.078 168.763 442.459 168.869 442.851 168.916L443.158 233.357L416.79 192.554ZM445.162 234.231L444.85 168.635C444.939 168.597 445.027 168.556 445.113 168.512L487.635 234.018C487.256 234.193 486.906 234.43 486.603 234.722C486.142 235.165 485.812 235.71 485.638 236.301H446.762C446.587 235.71 446.258 235.165 445.797 234.722C445.603 234.535 445.39 234.371 445.162 234.231ZM445.997 162.74C445.655 162.412 445.254 162.153 444.818 161.972L444.648 126.203L484.737 225.88L446.599 167.127C446.928 166.579 447.105 165.954 447.105 165.31C447.105 164.346 446.707 163.422 445.997 162.74ZM422.943 134.358L441.117 162.357C441.02 162.424 440.926 162.495 440.835 162.572L408.092 143.134L422.943 134.358ZM432.773 160.112L399.91 147.97L406.129 144.294L432.773 160.112ZM362.655 121.623L352.299 121.578L353.627 124.934L362.655 121.623ZM352.484 127.484L353.858 130.954L348.46 128.96L352.484 127.484ZM308.438 144.166L286.203 178.731L295.33 192.85L307.698 200.14L344.18 178.581L334.215 153.69L308.438 144.166ZM285.015 180.577L282.127 185.067L291.482 190.581L285.015 180.577ZM254.66 171.197L279.32 185.734L275.74 191.299L254.66 171.197ZM281.044 186.75L277.214 192.704L293.692 208.417L300.436 204.432L293.907 194.332L281.044 186.75ZM318.164 236.301H250.439L293.407 210.909L318.782 235.106C318.5 235.466 318.291 235.871 318.164 236.301ZM250.8 233.765L291.903 209.475L276.112 194.417L250.8 233.765ZM317.99 231.588L295.196 209.852L301.522 206.113L317.99 231.588ZM321.71 233.659L303.245 205.095L307.699 202.463L329.924 215.564L322.662 233.752C322.383 233.69 322.095 233.657 321.804 233.657C321.787 233.657 321.771 233.658 321.754 233.658L321.71 233.659ZM297.755 196.601L305.731 201.303L302.159 203.414L297.755 196.601ZM330.674 213.685L309.666 201.301L343.634 181.227L330.674 213.685ZM332.417 214.712L345.514 181.911L349.985 193.078L334.99 216.229L332.417 214.712ZM336.714 217.245L350.895 195.352L366.408 234.098C366.221 234.195 366.042 234.308 365.874 234.435L336.714 217.245ZM367.767 232.113V169.302L352.226 193.296L367.767 232.113ZM394.472 90.4982L369.767 75.7655V52.441L394.472 90.4982ZM347.52 109.5L364.585 119.631L351.506 119.574L347.52 109.5ZM352.004 160.263L336.743 154.624L345.511 176.524L352.004 160.263ZM406.336 202.597L371.696 235.874C371.758 236.013 371.81 236.156 371.853 236.301H439.482C439.63 235.8 439.889 235.332 440.244 234.932L406.336 202.597ZM439.629 231.581L407.78 201.21L415.321 193.966L439.629 231.581ZM285.38 83.3683L256.064 55.2066L292.301 76.719L285.38 83.3683ZM373.48 54.4873L436.741 115.706L398.362 92.8184L373.48 54.4873ZM324.995 235.339C325.193 235.637 325.344 235.962 325.444 236.301H364.573C364.598 236.213 364.628 236.127 364.66 236.041L335.626 218.926L324.995 235.339ZM484.404 247.729L443.839 350.253L443.812 350.248V313.083C444.591 312.962 445.316 312.608 445.881 312.066C446.59 311.384 446.989 310.46 446.989 309.496C446.989 308.608 446.651 307.754 446.043 307.092L484.404 247.729ZM444.347 306.031L486.927 240.139C486.814 240.053 486.706 239.961 486.603 239.862C486.152 239.429 485.827 238.898 485.649 238.321H446.75C446.573 238.898 446.248 239.429 445.797 239.862C445.252 240.385 444.559 240.732 443.812 240.865V305.908C443.994 305.937 444.173 305.978 444.347 306.031ZM441.812 306.117V241.253L415.507 282.144L440.945 306.581C441.213 306.39 441.504 306.234 441.812 306.117ZM439.691 308.15L414.405 283.858L390.215 321.462L396.931 325.449L439.449 309.924C439.431 309.783 439.422 309.64 439.422 309.496C439.422 309.03 439.515 308.574 439.691 308.15ZM441.812 313.639V350.457C441.336 350.638 440.899 350.912 440.53 351.266L440.511 351.284L440.488 351.307L423.852 341.431L441.812 313.639ZM422.766 343.112L439.511 353.053C439.505 353.078 439.5 353.103 439.495 353.127C439.491 353.144 439.488 353.16 439.485 353.176H416.262L422.766 343.112ZM365.076 423.445C364.655 423.922 364.37 424.494 364.247 425.104L326.081 425.271L355.11 407.881L365.076 423.445ZM366.974 422.289C366.899 422.308 366.825 422.33 366.752 422.353L356.826 406.853L367.075 400.713L366.974 422.289ZM369.026 422.31C369.009 422.305 368.991 422.301 368.974 422.296L369.081 399.511L393.324 384.989L369.176 422.356C369.127 422.34 369.077 422.325 369.026 422.31ZM250.168 238.321H318.176C318.254 238.574 318.36 238.819 318.493 239.05L292.982 263.738L250.168 238.321ZM302.291 269.264L320.528 240.713C320.934 240.853 321.365 240.926 321.804 240.926C322.005 240.926 322.204 240.911 322.4 240.881L329.784 259.458L307.831 272.554L302.291 269.264ZM335.255 256.194L324.645 239.692C325.01 239.293 325.278 238.825 325.433 238.321H364.584C364.616 238.426 364.654 238.529 364.695 238.631L335.255 256.194ZM371.173 239.554C371.478 239.187 371.704 238.768 371.841 238.321H439.493C439.63 238.764 439.853 239.18 440.154 239.546L405.659 272.683L371.173 239.554ZM365.955 240.208C366.037 240.267 366.121 240.322 366.207 240.373L350.426 279.79L336.337 257.877L365.955 240.208ZM369.092 397.173L395.782 381.185L412.589 355.176H371.729C371.541 355.633 371.256 356.052 370.888 356.406C370.436 356.84 369.882 357.153 369.28 357.323L369.092 397.173ZM367.146 357.323C367.19 357.335 367.235 357.347 367.279 357.358L367.086 398.375L355.747 405.168L346.079 390.07L367.146 357.323ZM364.696 355.176C364.733 355.265 364.773 355.352 364.817 355.438L347.055 366.031L351.4 355.176H364.696ZM366.097 350.823C365.898 350.952 365.71 351.1 365.537 351.266C365.306 351.488 365.108 351.735 364.946 352.002L354.249 348.06L356.546 342.324L361.937 340.356L366.097 350.823ZM371.088 351.474C371.054 351.435 371.018 351.397 370.982 351.359L383.01 332.661L396.726 327.653L404.083 332.021L371.214 351.623C371.174 351.573 371.132 351.523 371.088 351.474ZM414.97 355.176L399.667 378.857L439.197 355.176H414.97ZM421.045 342.09L413.881 353.176H372.514L406.04 333.183L421.045 342.09ZM422.131 340.409L439.819 313.039L407.995 332.017L422.131 340.409ZM406.038 330.855L434.592 313.827L399.152 326.767L406.038 330.855ZM389.132 323.145L394.505 326.335L384.8 329.878L389.132 323.145ZM388.494 320.44L412.935 282.446L405.659 275.456L371.698 308.081C371.893 308.525 371.996 309.005 371.996 309.496C371.996 309.856 371.94 310.211 371.833 310.549L388.494 320.44ZM404.216 274.07L370.415 306.54C370.134 306.348 369.828 306.193 369.506 306.08V240.726L404.216 274.07ZM367.506 242.509V305.925C367.472 305.932 367.438 305.938 367.405 305.945C367.357 305.955 367.31 305.966 367.263 305.978L351.753 281.855L367.506 242.509ZM347.402 298.371L364.558 308.556C364.473 308.86 364.429 309.176 364.429 309.496L364.43 309.533L364.43 309.565C364.43 309.586 364.431 309.608 364.432 309.629L364.434 309.671L353.499 313.711L347.402 298.371ZM354.238 315.57L365.097 311.558C365.227 311.738 365.374 311.909 365.537 312.066C365.763 312.282 366.014 312.469 366.283 312.622L359.651 329.189L354.238 315.57ZM369.382 335.508L369.489 312.917C369.94 312.762 370.359 312.525 370.722 312.216L387.411 322.123L381.692 331.013L369.382 335.508ZM350.841 284.134L365.349 306.7L346.327 295.407L350.841 284.134ZM349.513 282.069L334.618 258.903L332.271 260.303L345.202 292.837L349.513 282.069ZM327.015 247.076L331.523 258.42L333.536 257.219L327.015 247.076ZM309.788 273.715L330.532 261.34L343.375 293.655L309.788 273.715ZM336.482 319.998L345.196 298.234L351.622 314.404L336.482 319.998ZM335.48 322.501L352.361 316.263L358.571 331.886L355.021 340.752L344.671 344.531L328.975 338.748L335.48 322.501ZM347.573 345.6L354.023 343.245L352.372 347.369L347.573 345.6ZM344.668 346.661L351.628 349.226L350.047 353.176H326.825L344.668 346.661ZM353.506 349.918L352.201 353.176H362.349L353.506 349.918ZM324.48 356.163C324.456 356.186 324.433 356.208 324.409 356.23L335.209 373.095L344.225 367.718L349.246 355.176H325.21C325.027 355.539 324.782 355.873 324.48 356.163ZM333.49 374.12L322.619 357.143C322.353 357.199 322.08 357.228 321.804 357.228C321.286 357.228 320.778 357.126 320.311 356.933L285.872 390.262L293.743 397.824L333.49 374.12ZM341.766 345.592L325.034 351.701C324.879 351.457 324.694 351.229 324.48 351.024C324.38 350.928 324.276 350.839 324.168 350.756L328.232 340.605L341.766 345.592ZM326.354 339.913L322.319 349.993C322.149 349.971 321.977 349.959 321.804 349.959C321.366 349.959 320.935 350.032 320.529 350.172L310.133 333.936L326.354 339.913ZM336.288 374.78L343 370.777L339.432 379.69L336.288 374.78ZM345.83 369.09L340.757 381.76L344.893 388.218L364.273 358.091L345.83 369.09ZM334.569 375.805L338.518 381.972L322.408 422.21C322.21 422.179 322.008 422.163 321.804 422.163C321.054 422.163 320.327 422.377 319.711 422.77L295.239 399.26L334.569 375.805ZM318.376 424.261L293.458 400.323L251.071 425.6L318.056 425.306C318.107 424.943 318.216 424.59 318.376 424.261ZM319.931 428.955L258.98 465.468L362.321 427.112L325.261 427.275C325.074 427.678 324.811 428.049 324.48 428.367C323.77 429.049 322.808 429.432 321.804 429.432C321.142 429.432 320.497 429.265 319.931 428.955ZM324.869 423.666L354.031 406.196L344.889 391.921L324.642 423.394C324.723 423.482 324.798 423.572 324.869 423.666ZM339.844 384.042L327.094 415.887L343.703 390.068L339.844 384.042ZM367.369 338.372L367.321 348.488L363.816 339.669L367.369 338.372ZM367.379 336.24L363.077 337.81L360.724 331.889L367.479 315.017L367.379 336.24ZM357.544 339.83L361.198 338.496L359.644 334.587L357.544 339.83ZM307.834 274.881L343.834 296.253L333.954 320.933L307.957 330.538L285.526 295.51L293.081 283.683L307.834 274.881ZM301.213 270.951L305.877 273.72L295.484 279.92L301.213 270.951ZM300.57 268.243L315.735 244.502L294.764 264.797L300.57 268.243ZM293.275 266.238L299.493 269.929L291.65 282.207L281.055 288.528L276.918 282.068L293.275 266.238ZM275.818 280.349L250.532 240.863L291.492 265.18L275.818 280.349ZM275.452 283.487L252.866 305.345L279.337 289.553L275.452 283.487ZM284.338 293.654L289.246 285.97L282.134 290.213L284.338 293.654ZM284.34 297.366L271.447 317.55L305.238 330.001L284.34 297.366ZM304.438 331.838L270.345 319.276L268.794 321.704L292.888 336.106L304.438 331.838ZM295.092 337.423L318.691 351.529C318.748 351.449 318.809 351.371 318.874 351.295L307.14 332.972L295.092 337.423ZM317.548 353.176H252.457L292.683 338.313L317.548 353.176ZM369.313 350.257L379.902 333.796L369.372 337.641L369.313 350.257ZM332.952 323.435L327.098 338.056L310.216 331.835L332.952 323.435ZM373.385 419.527L437.108 358.759L397.209 382.661L373.385 419.527ZM436.474 245.854L407.102 274.07L414.037 280.732L436.474 245.854ZM284.433 391.654L252.873 422.197L291.962 398.886L284.433 391.654ZM255.71 313.883L268.424 318.568L267.076 320.677L255.71 313.883ZM331.667 216.592L326.704 229.021L333.902 217.909L331.667 216.592Z" fill="url(#paint0_radial_2:87)"/>
<defs>
<radialGradient id="paint0_radial_2:87" cx="0" cy="0" r="1" gradientUnits="userSpaceOnUse" gradientTransform="translate(246.981 236.583) rotate(90) scale(236.965 246.08)">
<stop stop-color="#4527A0"/>
<stop offset="0.489583" stop-color="#D6603B"/>
<stop offset="1" stop-color="#FFA000"/>
</radialGradient>
</defs>
</svg>
